<svg xmlns="http://www.w3.org/2000/svg" xmlns:xlink="http://www.w3.org/1999/xlink" width="533.847" height="561.417" viewBox="0 0 533.847 561.417">
  <defs>
    <linearGradient id="linear-gradient" x1="0.498" y1="1.135" x2="0.508" y2="0.214" gradientUnits="objectBoundingBox">
      <stop offset="0" stop-color="#c1272d"/>
      <stop offset="1" stop-color="red"/>
    </linearGradient>
    <linearGradient id="linear-gradient-2" x1="-0.021" y1="0.5" x2="1.088" y2="0.5" xlink:href="#linear-gradient"/>
  </defs>
  <g id="Group_329" data-name="Group 329" transform="translate(-1386.95 -10023.583)">
    <g id="Group_314" data-name="Group 314" transform="translate(1386.95 10023.583)">
      <path id="Path_15" data-name="Path 15" d="M160.676,613.971c-19.126,0-36.514-1.685-36.514-1.685-2.119-.271-4.184-.6-6.14-.924a19.311,19.311,0,0,1-16.083-21.789l6.194-42.98a19.888,19.888,0,0,1,21.952-17.007,270.429,270.429,0,0,0,65.42-.6c14.562-1.9,69.061-9.781,117.257-44.284,88.513-63.3,130.08-187.731,96.718-289.448a225.314,225.314,0,0,0-37.6-69.333,29.307,29.307,0,0,1,.815-37.6l24.832-28.2a22.189,22.189,0,0,1,29.45-3.532c51.6,35.956,139.525,105.144,208.284,207.1.9,1.333-.418,25.081,0,37.322-.1,39.405-.828,99.021,0,124.735-1.041,28.183.049,59.88,0,86.8-.008,4.524.5,95.1-.1,94.515a22.248,22.248,0,0,1-6.494-17.757,441.719,441.719,0,0,0-13.04-149.1C588.9,338.922,532.715,272.958,503.1,242.638c9.618,117.529-43.958,239.513-141.98,309.662C291.3,602.234,216.1,613.971,160.676,613.971Z" transform="translate(-101.735 -52.555)" fill="url(#linear-gradient)"/>
    </g>
    <path id="Path_2299" data-name="Path 2299" d="M263.689,65.7c7.5-15.214,30.808-11.737,32.6,5.107a177.985,177.985,0,0,1-2.174,50.044,193.141,193.141,0,0,1-43.469,89.817,196.235,196.235,0,0,1-81.776,57.053,179.854,179.854,0,0,1-48.142,10.107c-17.007,1.087-24.18-21.463-10.324-31.352,11.737-8.422,22.713-16.681,33.2-25.266a421.5,421.5,0,0,0,55.532-54.391,443.674,443.674,0,0,0,44.555-63.628C250.593,91.289,257.113,78.9,263.689,65.7Z" transform="translate(1357.708 10155.577)" fill="url(#linear-gradient-2)"/>
  </g>
</svg>
