<svg xmlns="http://www.w3.org/2000/svg" xmlns:xlink="http://www.w3.org/1999/xlink" width="552.389" height="109.95" viewBox="0 0 552.389 109.95">
  <defs>
    <linearGradient id="linear-gradient" x1="0.5" y1="1.574" x2="0.5" y2="-0.294" gradientUnits="objectBoundingBox">
      <stop offset="0" stop-color="#4d4d4d"/>
      <stop offset="0.199" stop-color="#474747"/>
      <stop offset="0.464" stop-color="#363636"/>
      <stop offset="0.766" stop-color="#1a1a1a"/>
      <stop offset="1"/>
    </linearGradient>
    <linearGradient id="linear-gradient-2" x1="0.5" y1="1.575" x2="0.5" y2="-0.296" xlink:href="#linear-gradient"/>
    <linearGradient id="linear-gradient-5" x1="0.5" y1="2.102" x2="0.5" y2="-1.605" xlink:href="#linear-gradient"/>
    <linearGradient id="linear-gradient-7" x1="0.5" y1="1.535" x2="0.5" y2="-0.266" xlink:href="#linear-gradient"/>
    <linearGradient id="linear-gradient-9" x1="0.498" y1="1.135" x2="0.508" y2="0.214" gradientUnits="objectBoundingBox">
      <stop offset="0" stop-color="#c1272d"/>
      <stop offset="1" stop-color="red"/>
    </linearGradient>
    <linearGradient id="linear-gradient-10" x1="-0.021" y1="0.5" x2="1.088" y2="0.5" xlink:href="#linear-gradient-9"/>
  </defs>
  <g id="Group_10" data-name="Group 10" transform="translate(-61.442 -52.555)">
    <path id="Path_7" data-name="Path 7" d="M134.65,131.262H120.7v-49L97.585,121.26,75.388,81.9v49.36H61.442v-73.4H77.5L97.864,94.29l21.283-36.428h15.5Z" transform="translate(0 29.87)" fill="url(#linear-gradient)"/>
    <path id="Path_8" data-name="Path 8" d="M123,131.183H74.564V57.876H123V69.621H88.51V87.146h34.036V98.613H88.51V118.8H123Z" transform="translate(73.852 29.949)" fill="url(#linear-gradient-2)"/>
    <path id="Path_9" data-name="Path 9" d="M137.795,70.536H117.519v60.647h-14.4V70.536H82.841V57.876h54.954Z" transform="translate(120.437 29.949)" fill="url(#linear-gradient-2)"/>
    <path id="Path_10" data-name="Path 10" d="M147.656,131.262H131.993l-5.216-16.7a26.64,26.64,0,0,0-2.055-5.051,15.738,15.738,0,0,0-2.976-3.944A12.357,12.357,0,0,0,117.584,103a16.207,16.207,0,0,0-5.72-.915h-5.309v29.177H92.516V57.955l28.938-.093a23.226,23.226,0,0,1,8.7,1.611,21.047,21.047,0,0,1,6.96,4.448,20.439,20.439,0,0,1,4.58,6.694,21.123,21.123,0,0,1,1.65,8.351A19.666,19.666,0,0,1,142.34,85.2a21.181,21.181,0,0,1-2.824,5.6,22.115,22.115,0,0,1-4.328,4.54,18.4,18.4,0,0,1-5.515,2.983,14.019,14.019,0,0,1,5.654,3.712,18.17,18.17,0,0,1,3.46,5.826q.636,1.561,1.186,3.122l1.14,3.254c.4,1.133.822,2.353,1.279,3.672s.954,2.764,1.5,4.355c.669,2.022,1.3,3.751,1.876,5.183A25.849,25.849,0,0,0,147.656,131.262ZM129.123,79.973a11.15,11.15,0,0,0-.961-4.679,11.688,11.688,0,0,0-2.618-3.665,11.864,11.864,0,0,0-3.9-2.433,13.181,13.181,0,0,0-4.819-.875H106.554V91.168h10.274a14.519,14.519,0,0,0,4.819-.782,11.341,11.341,0,0,0,3.9-2.247,10.619,10.619,0,0,0,3.579-8.166Z" transform="translate(174.889 29.87)" fill="url(#linear-gradient)"/>
    <path id="Path_11" data-name="Path 11" d="M177.925,63.964,167.7,63.931a2.542,2.542,0,0,0-2.525,2.167,23.154,23.154,0,0,1-1.637,5.839,24.939,24.939,0,0,1-5.289,7.841A25.429,25.429,0,0,1,150.4,85.1a24.353,24.353,0,0,1-19.215,0,25.351,25.351,0,0,1-7.854-5.322,23.524,23.524,0,0,1-1.77-1.962,24.844,24.844,0,0,1-3.52-5.879,23.907,23.907,0,0,1-1.611-5.866,2.489,2.489,0,0,0-2.565-2.154q-2.038.08-4.288.033c-2.015-.046-3.917-.186-5.68-.378a1.954,1.954,0,0,0-2.154,2.207,40.864,40.864,0,0,0,3.221,11.613,39.928,39.928,0,0,0,4.984,8.312l.974,1.193a39.471,39.471,0,0,0,14.84,10.678,39.474,39.474,0,0,0,30.105,0,39.98,39.98,0,0,0,12.368-8.119,35.819,35.819,0,0,0,2.93-3.175,34.512,34.512,0,0,0,5.455-8.935,31.1,31.1,0,0,0,2.214-12.514A.9.9,0,0,0,177.925,63.964Z" transform="translate(226.709 61.946)" fill="url(#linear-gradient-5)"/>
    <path id="Path_12" data-name="Path 12" d="M166.629,82.466a24.192,24.192,0,0,1-1.975,9.77,24.839,24.839,0,0,1-5.382,7.887,24.4,24.4,0,0,1-8,5.23,25.394,25.394,0,0,1-9.75,1.882H129.385v23.947H115.161V57.876h26.38a25.534,25.534,0,0,1,9.743,1.882,24.864,24.864,0,0,1,7.993,5.183,24.489,24.489,0,0,1,5.375,7.795A23.912,23.912,0,0,1,166.629,82.466Zm-14.217-.186a13.511,13.511,0,0,0-3.944-9.631,14.216,14.216,0,0,0-4.315-2.936,12.928,12.928,0,0,0-5.322-1.1h-9.445V96.319h9.445a12.549,12.549,0,0,0,5.322-1.147,14.04,14.04,0,0,0,4.315-3.075,14.543,14.543,0,0,0,2.89-4.447A13.8,13.8,0,0,0,152.411,82.281Z" transform="translate(302.338 29.949)" fill="url(#linear-gradient-2)"/>
    <path id="Path_13" data-name="Path 13" d="M201.682,95.727a36.422,36.422,0,0,1-3.069,14.86,37.766,37.766,0,0,1-8.385,12.11,39.934,39.934,0,0,1-12.375,8.119,39.457,39.457,0,0,1-30.1,0,39.761,39.761,0,0,1-12.421-8.119,38.033,38.033,0,0,1-8.385-12.063,37.85,37.85,0,0,1,0-29.86,38.012,38.012,0,0,1,8.385-12.11,39.533,39.533,0,0,1,27.494-11.009A38.793,38.793,0,0,1,198.613,80.82,36.347,36.347,0,0,1,201.682,95.727Zm-14.217,0a23.546,23.546,0,0,0-1.935-9.5,24.983,24.983,0,0,0-5.283-7.795,25.5,25.5,0,0,0-7.861-5.322,24.337,24.337,0,0,0-19.208,0,25.578,25.578,0,0,0-7.861,5.322,24.984,24.984,0,0,0-5.283,7.795,24.237,24.237,0,0,0,0,18.95,24.812,24.812,0,0,0,5.283,7.841,25.461,25.461,0,0,0,7.861,5.322,24.336,24.336,0,0,0,19.208,0,25.381,25.381,0,0,0,7.861-5.322,24.811,24.811,0,0,0,5.283-7.841A23.625,23.625,0,0,0,187.465,95.727Z" transform="translate(351.415 28.705)" fill="url(#linear-gradient-7)"/>
    <path id="Path_14" data-name="Path 14" d="M186.926,131.183H137.294V57.876h14.5v59.541h35.136Z" transform="translate(426.906 29.949)" fill="url(#linear-gradient-2)"/>
    <g id="Group_4" data-name="Group 4" transform="translate(328.511 52.555)">
      <path id="Path_15" data-name="Path 15" d="M108.925,121.039c-2.333,0-4.454-.205-4.454-.205-.258-.033-.51-.073-.749-.113a2.356,2.356,0,0,1-1.962-2.658l.756-5.243a2.426,2.426,0,0,1,2.678-2.075,32.988,32.988,0,0,0,7.98-.073,32.531,32.531,0,0,0,14.3-5.4c10.8-7.722,15.868-22.9,11.8-35.308a27.485,27.485,0,0,0-4.587-8.458,3.575,3.575,0,0,1,.1-4.587l3.029-3.44a2.707,2.707,0,0,1,3.592-.431c10.234,7.132,32.186,24.981,36.806,53.39a66.654,66.654,0,0,1,.855,11.811,2.81,2.81,0,0,1-2.817,2.777L168.737,121a2.74,2.74,0,0,1-2.724-2.969,53.883,53.883,0,0,0-1.591-18.188,54.593,54.593,0,0,0-13.727-24.1,42.816,42.816,0,0,1-17.319,37.774A41.708,41.708,0,0,1,108.925,121.039Z" transform="translate(-101.735 -52.555)" fill="url(#linear-gradient-9)"/>
    </g>
    <path id="Path_16" data-name="Path 16" d="M122.684,57.2a2.1,2.1,0,0,1,3.977.623,21.711,21.711,0,0,1-.265,6.1,23.56,23.56,0,0,1-5.3,10.956,23.938,23.938,0,0,1-9.975,6.96,21.94,21.94,0,0,1-5.873,1.233,2.1,2.1,0,0,1-1.259-3.824c1.432-1.027,2.771-2.035,4.05-3.082a51.414,51.414,0,0,0,6.774-6.635,54.121,54.121,0,0,0,5.435-7.762C121.087,60.318,121.882,58.807,122.684,57.2Z" transform="translate(234.426 19.474)" fill="url(#linear-gradient-10)"/>
    <g id="Group_5" data-name="Group 5" transform="translate(349.357 127.265)">
      <path id="Path_17" data-name="Path 17" d="M109.823,66.084a14.635,14.635,0,0,0,2.983,7.649,15.49,15.49,0,0,0,7.218,5.15,16.806,16.806,0,0,1-8.928-3.394,18.4,18.4,0,0,1-6.032-8.252l-.027-.073a2.475,2.475,0,0,1,4.64-1.723A2.441,2.441,0,0,1,109.823,66.084Z" transform="translate(-104.88 -63.826)" fill="#333"/>
    </g>
  </g>
</svg>
