<svg xmlns="http://www.w3.org/2000/svg" width="219.96" height="225.092" viewBox="0 0 219.96 225.092">
  <g id="Group_124" data-name="Group 124" transform="translate(-168.643 -34.337)">
    <path id="Path_528" data-name="Path 528" d="M195.751,111.312a8.044,8.044,0,1,1-8.043-8.043A8.043,8.043,0,0,1,195.751,111.312Z" transform="translate(11.971 74.877)" fill="#353432"/>
    <circle id="Ellipse_15" data-name="Ellipse 15" cx="16.948" cy="16.948" r="16.948" transform="translate(199.248 198.874) rotate(-76.957)" fill="#9d9c95"/>
    <rect id="Rectangle_108" data-name="Rectangle 108" width="52.274" height="5.399" transform="translate(185.526 195.291)" fill="#353432"/>
    <path id="Path_529" data-name="Path 529" d="M188.893,114.81a5.619,5.619,0,1,1-5.62-5.618A5.62,5.62,0,0,1,188.893,114.81Z" transform="translate(9.788 81.311)" fill="#353432"/>
    <rect id="Rectangle_109" data-name="Rectangle 109" width="2.064" height="179.434" transform="translate(376.996 77.658)" fill="#696863"/>
    <g id="Group_109" data-name="Group 109" transform="translate(223.798 34.338)">
      <g id="Group_107" data-name="Group 107" transform="translate(120.033 12.436)">
        <path id="Path_530" data-name="Path 530" d="M258.94,68.453l19.615-27.315a1.992,1.992,0,0,1,3.43.309c3.365,7.281,10.59,27.092,2.862,50.308-7.592,22.813-22.918,32.064-29.383,35.057a2,2,0,0,1-2.846-1.9l1.923-43.246Z" transform="translate(-252.616 -40.299)" fill="#df3d32"/>
        <path id="Path_531" data-name="Path 531" d="M273.65,94.217c-6.972,9.545-18.3,14.316-18.3,14.316l1.421-35.4,5.673-.259,3.933-1.675,1.1-16.319-2.245-.747L254.948,69.255l-.522-.052-.04.878-.052.077.048.058-1.765,39.67a2,2,0,0,0,2.846,1.9c6.465-2.994,21.791-12.246,29.383-35.057a67.1,67.1,0,0,0,2.343-9.207C283.369,80.068,280.6,84.706,273.65,94.217Z" transform="translate(-252.616 -25.272)" fill="#e3e3dd" style="mix-blend-mode: multiply;isolation: isolate"/>
      </g>
      <g id="Group_108" data-name="Group 108" transform="translate(0 0)">
        <rect id="Rectangle_110" data-name="Rectangle 110" width="134.726" height="13.928" transform="translate(4.398 0) rotate(18.408)" fill="#9d9c95"/>
        <path id="Path_532" data-name="Path 532" d="M203.471,35.785l.109,10.311,41.344,13.928,3.6-9.245V61.056l11.018,3.783,3.544-9.213V66.218l50.583,17.048,3.238-9.728V84.184l2.157.639-.544,1.633L199.761,46.932Z" transform="translate(-189.997 -32.765)" fill="#e3e3dd" style="mix-blend-mode: multiply;isolation: isolate"/>
        <rect id="Rectangle_111" data-name="Rectangle 111" width="1.161" height="12.838" transform="matrix(0.949, 0.316, -0.316, 0.949, 12.373, 2.654)" fill="#d1d0c6"/>
        <rect id="Rectangle_112" data-name="Rectangle 112" width="1.161" height="12.838" transform="translate(57.424 17.648) rotate(18.409)" fill="#d1d0c6"/>
        <rect id="Rectangle_113" data-name="Rectangle 113" width="1.161" height="12.838" transform="translate(71.985 22.494) rotate(18.409)" fill="#d1d0c6"/>
        <rect id="Rectangle_114" data-name="Rectangle 114" width="1.161" height="12.838" transform="translate(125.806 40.407) rotate(18.409)" fill="#d1d0c6"/>
        <rect id="Rectangle_115" data-name="Rectangle 115" width="134.726" height="2.181" transform="matrix(0.949, 0.316, -0.316, 0.949, 0.689, 11.146)" fill="#e3e3dd"/>
        <rect id="Rectangle_116" data-name="Rectangle 116" width="2.364" height="16.465" transform="translate(132.645 41.297) rotate(18.409)" fill="#e3e3dd"/>
      </g>
      <path id="Path_533" data-name="Path 533" d="M254.472,54.838l3.64-2.757,5.1,4.28-.415,1.248Z" transform="translate(-130.567 -15.064)" fill="#696863"/>
      <path id="Path_534" data-name="Path 534" d="M252.364,59.737l1.262,4.388,6.647-.37.415-1.248Z" transform="translate(-132.857 -6.747)" fill="#696863"/>
    </g>
    <g id="Group_111" data-name="Group 111" transform="translate(258.927 71.037)">
      <g id="Group_110" data-name="Group 110" transform="translate(0 6.879)">
        <path id="Path_535" data-name="Path 535" d="M266.815,180.063h-54.9L222.19,55.226h34.354ZM216.4,175.937h45.937L252.743,59.353H225.991Z" transform="translate(-211.919 -55.226)" fill="#9d9c95"/>
        <rect id="Rectangle_117" data-name="Rectangle 117" width="45.294" height="4.127" transform="translate(4.66 87.489)" fill="#9d9c95"/>
        <rect id="Rectangle_118" data-name="Rectangle 118" width="39.557" height="4.127" transform="translate(7.687 54.931)" fill="#9d9c95"/>
        <rect id="Rectangle_119" data-name="Rectangle 119" width="4.127" height="58.372" transform="translate(3.486 91.25) rotate(-55.31)" fill="#9d9c95"/>
        <rect id="Rectangle_120" data-name="Rectangle 120" width="53.172" height="4.127" transform="matrix(0.791, -0.612, 0.612, 0.791, 3.943, 87.921)" fill="#9d9c95"/>
        <rect id="Rectangle_121" data-name="Rectangle 121" width="4.127" height="46.128" transform="translate(8.971 31.163) rotate(-53.423)" fill="#9d9c95"/>
        <rect id="Rectangle_122" data-name="Rectangle 122" width="38.161" height="4.127" transform="matrix(0.845, -0.535, 0.535, 0.845, 9.385, 20.746)" fill="#9d9c95"/>
      </g>
      <path id="Path_536" data-name="Path 536" d="M216.4,175.937l2.241-27.223,11.983,8.3,1.921-3.693-9.357-6.476h12.722l2.143-4.127H223.16l24.9-19.283c1.617-3.117,3.138-6.052,4.519-8.718l-33.257,25.759,2.153-26.189H252.8c1.3-2.518,2.483-4.792,3.5-6.759L224,83.557l.384-4.648,28.484-18.052,3.784,45.987c1.846-3.565,3.109-6.006,3.572-6.9l-3.678-44.717H222.19L211.919,180.063H218.6q1.045-1.993,2.157-4.127Zm9.593-116.584h21.543l-22.728,14.4ZM223.6,88.4l29.32,21.758H221.81Z" transform="translate(-211.919 -48.347)" fill="#e3e3dd" style="mix-blend-mode: multiply;isolation: isolate"/>
      <path id="Path_537" data-name="Path 537" d="M218.431,56l-3.173,38.554H219.4l.576-7,9.426,7h6.924L220.371,82.717l.384-4.648,28.484-18.052,2.844,34.538h4.139L253.048,56Zm2.748,16.915,1.185-14.4h21.543Z" transform="translate(-208.292 -47.506)" fill="#e3e3dd" style="mix-blend-mode: multiply;isolation: isolate"/>
      <rect id="Rectangle_123" data-name="Rectangle 123" width="36.282" height="4.643" transform="translate(8.71 4.299)" fill="#696863"/>
      <path id="Path_538" data-name="Path 538" d="M218.155,56.227,232,51.929l14.014,4.3Z" transform="translate(-205.145 -51.929)" fill="#9d9c95"/>
    </g>
    <path id="Path_539" data-name="Path 539" d="M216.174,120.433l-.968-12.591L187,103.236l-.006.01-1.26,2.954a16.9,16.9,0,0,0,1.869,14.249h28.559Z" transform="translate(17.699 74.841)" fill="#e3e3dd" style="mix-blend-mode: multiply;isolation: isolate"/>
    <path id="Path_540" data-name="Path 540" d="M231.63,53.927a4.471,4.471,0,1,1-4.471-4.471A4.472,4.472,0,0,1,231.63,53.927Z" transform="translate(58.706 16.422)" fill="#353432"/>
    <g id="Group_113" data-name="Group 113" transform="translate(171.29 134.91)">
      <path id="Path_541" data-name="Path 541" d="M211.754,127.727,180.2,107.446a8.3,8.3,0,0,1-2.5-11.476h0a8.308,8.308,0,0,1,11.479-2.5l31.557,20.28a8.307,8.307,0,0,1,2.5,11.476h0A8.306,8.306,0,0,1,211.754,127.727Z" transform="translate(-162.885 -72.107)" fill="#df3d32"/>
      <path id="Path_542" data-name="Path 542" d="M188.666,111.727l4.488-6.985a6.813,6.813,0,0,1-.223-7.6,6.512,6.512,0,0,1,5.483-2.9,2.98,2.98,0,0,0,2.391-1.4L204.88,86.5a2.563,2.563,0,0,0-2.4-3.939A41.745,41.745,0,0,0,188.66,86.34c-1.642.778-2.168,2.051-3.336,3.87-.905,1.41-4.419.937-5.777,2.136-2.639,2.33-3.365,6.363-5.635,9.9Z" transform="translate(-165.567 -82.545)" fill="#df3d32"/>
      <path id="Path_543" data-name="Path 543" d="M193.011,101.471l-4.488,6.983a6.811,6.811,0,0,0-7.01,2.956,6.51,6.51,0,0,0-.359,6.192,2.976,2.976,0,0,1-.282,2.754L176.8,126.7a2.564,2.564,0,0,1-4.581-.549,41.782,41.782,0,0,1-2.3-14.141c.027-1.817.966-2.825,2.134-4.642.908-1.41-.985-4.408-.457-6.144,1.024-3.367,4.389-5.7,6.663-9.238Z" transform="translate(-169.912 -72.289)" fill="#df3d32"/>
      <g id="Group_112" data-name="Group 112" transform="translate(2.586 4.539)">
        <circle id="Ellipse_16" data-name="Ellipse 16" cx="2.45" cy="2.45" r="2.45" transform="translate(0 34.843)" fill="#e3e3dd" style="mix-blend-mode: multiply;isolation: isolate"/>
        <circle id="Ellipse_17" data-name="Ellipse 17" cx="2.45" cy="2.45" r="2.45" transform="translate(22.353)" fill="#e3e3dd" style="mix-blend-mode: multiply;isolation: isolate"/>
        <circle id="Ellipse_18" data-name="Ellipse 18" cx="2.45" cy="2.45" r="2.45" transform="translate(13.608 11.74)" fill="#e3e3dd" style="mix-blend-mode: multiply;isolation: isolate"/>
        <path id="Path_544" data-name="Path 544" d="M179.34,97.241a2.45,2.45,0,1,1-2.449-2.449A2.451,2.451,0,0,1,179.34,97.241Z" transform="translate(-167.581 -73.78)" fill="#e3e3dd" style="mix-blend-mode: multiply;isolation: isolate"/>
        <circle id="Ellipse_19" data-name="Ellipse 19" cx="1" cy="1" r="1" transform="translate(19.514 27.502)" fill="#e3e3dd" style="mix-blend-mode: multiply;isolation: isolate"/>
        <path id="Path_545" data-name="Path 545" d="M188.56,102.827a1,1,0,1,1-1-1A1,1,0,0,1,188.56,102.827Z" transform="translate(-154.415 -66.137)" fill="#e3e3dd" style="mix-blend-mode: multiply;isolation: isolate"/>
        <path id="Path_546" data-name="Path 546" d="M192.669,105.487a1,1,0,1,1-1-1A1,1,0,0,1,192.669,105.487Z" transform="translate(-149.95 -63.25)" fill="#e3e3dd" style="mix-blend-mode: multiply;isolation: isolate"/>
        <path id="Path_547" data-name="Path 547" d="M196.477,108.123a1,1,0,1,1-1-1A1,1,0,0,1,196.477,108.123Z" transform="translate(-145.813 -60.385)" fill="#e3e3dd" style="mix-blend-mode: multiply;isolation: isolate"/>
        <circle id="Ellipse_20" data-name="Ellipse 20" cx="1" cy="1" r="1" transform="translate(26.254 32.955)" fill="#e3e3dd" style="mix-blend-mode: multiply;isolation: isolate"/>
        <path id="Path_548" data-name="Path 548" d="M194.709,102.827a1,1,0,1,1-1-1A1,1,0,0,1,194.709,102.827Z" transform="translate(-147.734 -66.137)" fill="#e3e3dd" style="mix-blend-mode: multiply;isolation: isolate"/>
        <path id="Path_549" data-name="Path 549" d="M198.327,105.147a1,1,0,1,1-1-1A1,1,0,0,1,198.327,105.147Z" transform="translate(-143.806 -63.619)" fill="#e3e3dd" style="mix-blend-mode: multiply;isolation: isolate"/>
        <path id="Path_550" data-name="Path 550" d="M190.684,100a1,1,0,1,1-1-1A1,1,0,0,1,190.684,100Z" transform="translate(-152.106 -69.209)" fill="#e3e3dd" style="mix-blend-mode: multiply;isolation: isolate"/>
        <path id="Path_551" data-name="Path 551" d="M184.562,96.151a1,1,0,1,1-1-1A1,1,0,0,1,184.562,96.151Z" transform="translate(-158.758 -73.389)" fill="#e3e3dd" style="mix-blend-mode: multiply;isolation: isolate"/>
        <circle id="Ellipse_21" data-name="Ellipse 21" cx="1" cy="1" r="1" transform="translate(29.823 25.503)" fill="#e3e3dd" style="mix-blend-mode: multiply;isolation: isolate"/>
      </g>
      <path id="Path_552" data-name="Path 552" d="M193.011,101.471v0l-14.754-9.482c-2.274,3.534-5.639,5.871-6.663,9.238-.528,1.736,1.364,4.734.457,6.144-1.168,1.817-2.107,2.825-2.134,4.642a41.729,41.729,0,0,0,2.3,14.141,2.564,2.564,0,0,0,4.581.549l4.077-6.344a2.976,2.976,0,0,0,.282-2.754,6.51,6.51,0,0,1,.359-6.192,6.786,6.786,0,0,1,6.985-2.962l30.282,19.461a8.28,8.28,0,0,0,9.749-.607l1.729-1.89Z" transform="translate(-169.912 -72.289)" fill="#e3e3dd" style="mix-blend-mode: multiply;isolation: isolate"/>
    </g>
    <rect id="Rectangle_124" data-name="Rectangle 124" width="1.484" height="29.072" transform="translate(326.746 171.652)" fill="#ffc700"/>
    <g id="Group_114" data-name="Group 114" transform="translate(168.643 171.652)">
      <rect id="Rectangle_125" data-name="Rectangle 125" width="1.484" height="29.072" transform="translate(1.068)" fill="#696863"/>
      <rect id="Rectangle_126" data-name="Rectangle 126" width="1.484" height="29.072" transform="translate(53.413)" fill="#696863"/>
      <rect id="Rectangle_127" data-name="Rectangle 127" width="1.484" height="29.072" transform="translate(40.327)" fill="#696863"/>
      <rect id="Rectangle_128" data-name="Rectangle 128" width="1.484" height="29.072" transform="translate(27.241)" fill="#696863"/>
      <rect id="Rectangle_129" data-name="Rectangle 129" width="1.484" height="29.072" transform="translate(14.154)" fill="#696863"/>
      <rect id="Rectangle_130" data-name="Rectangle 130" width="1.484" height="29.072" transform="translate(105.758)" fill="#696863"/>
      <rect id="Rectangle_131" data-name="Rectangle 131" width="1.484" height="29.072" transform="translate(92.672)" fill="#696863"/>
      <rect id="Rectangle_132" data-name="Rectangle 132" width="1.484" height="29.072" transform="translate(79.585)" fill="#696863"/>
      <rect id="Rectangle_133" data-name="Rectangle 133" width="1.484" height="29.072" transform="translate(66.499)" fill="#696863"/>
      <rect id="Rectangle_134" data-name="Rectangle 134" width="1.484" height="29.072" transform="translate(145.016)" fill="#696863"/>
      <rect id="Rectangle_135" data-name="Rectangle 135" width="1.484" height="29.072" transform="translate(131.93)" fill="#696863"/>
      <rect id="Rectangle_136" data-name="Rectangle 136" width="1.484" height="29.072" transform="translate(118.844)" fill="#696863"/>
      <rect id="Rectangle_137" data-name="Rectangle 137" width="1.484" height="29.072" transform="translate(158.102)" fill="#696863"/>
      <rect id="Rectangle_138" data-name="Rectangle 138" width="1.484" height="29.072" transform="translate(171.188)" fill="#696863"/>
      <rect id="Rectangle_139" data-name="Rectangle 139" width="173.591" height="2.333" fill="#696863"/>
    </g>
    <g id="Group_115" data-name="Group 115" transform="translate(367.366 219.966)">
      <rect id="Rectangle_140" data-name="Rectangle 140" width="18.571" height="18.433" transform="translate(1.376 18.692)" fill="#9d9c95"/>
      <rect id="Rectangle_141" data-name="Rectangle 141" width="12.594" height="12.501" transform="translate(4.365 6.191)" fill="#696863"/>
      <rect id="Rectangle_142" data-name="Rectangle 142" width="6.371" height="6.323" transform="translate(7.476)" fill="#9d9c95"/>
      <rect id="Rectangle_143" data-name="Rectangle 143" width="18.571" height="6.861" transform="translate(1.376 30.264)" fill="#353432"/>
      <rect id="Rectangle_144" data-name="Rectangle 144" width="13.777" height="4.341" rx="0.26" transform="translate(3.773 6.191)" fill="#df3d32"/>
      <rect id="Rectangle_145" data-name="Rectangle 145" width="7.53" height="1.912" rx="0.315" transform="translate(6.897)" fill="#df3d32"/>
      <rect id="Rectangle_146" data-name="Rectangle 146" width="21.236" height="1.857" rx="0.275" transform="translate(0.001 18.692)" fill="#df3d32"/>
      <path id="Path_553" data-name="Path 553" d="M265.274,160.438h9.284V123.315h-3.184v.031a.642.642,0,0,0-.58.626v.6a.642.642,0,0,0,.58.626v4.31h-3.163a.542.542,0,0,0-.54.542V133.3a.541.541,0,0,0,.54.542h.05v8.159h-3.791a.573.573,0,0,0-.574.574v.709a.573.573,0,0,0,.574.574h.8v16.575Z" transform="translate(-263.897 -123.314)" fill="#e3e3dd" style="mix-blend-mode: multiply;isolation: isolate"/>
    </g>
    <rect id="Rectangle_147" data-name="Rectangle 147" width="173.452" height="2.7" transform="translate(168.936 198.216)" fill="#696863"/>
    <g id="Group_116" data-name="Group 116" transform="translate(193.515 48.707)">
      <rect id="Rectangle_148" data-name="Rectangle 148" width="10.661" height="9.629" transform="translate(33.751 0) rotate(18.409)" fill="#9d9c95"/>
      <rect id="Rectangle_149" data-name="Rectangle 149" width="99.463" height="2.062" transform="translate(1.697 115.077) rotate(-72.487)" fill="#696863"/>
      <rect id="Rectangle_150" data-name="Rectangle 150" width="3.095" height="10.392" transform="translate(34.355 10.162) rotate(18.408)" fill="#696863"/>
      <rect id="Rectangle_151" data-name="Rectangle 151" width="10.661" height="5.866" transform="translate(28.486 16.206) rotate(18.408)" fill="#df3d32"/>
      <path id="Path_554" data-name="Path 554" d="M185.3,97.767a2.37,2.37,0,1,1-2.37-2.37A2.369,2.369,0,0,1,185.3,97.767Z" transform="translate(-180.565 17.619)" fill="#353432"/>
    </g>
    <g id="Group_117" data-name="Group 117" transform="translate(168.936 200.69)">
      <rect id="Rectangle_152" data-name="Rectangle 152" width="173.501" height="17.195" fill="#d1d0c6"/>
      <path id="Path_555" data-name="Path 555" d="M168.784,114.183l25.647,12.873H342.285v4.1h-173.5Z" transform="translate(-168.784 -113.957)" fill="#e3e3dd" style="mix-blend-mode: multiply;isolation: isolate"/>
    </g>
    <g id="Group_118" data-name="Group 118" transform="translate(257.918 70.853)">
      <rect id="Rectangle_153" data-name="Rectangle 153" width="54.812" height="5.847" transform="translate(1.068 29.072)" fill="#ffc700"/>
      <rect id="Rectangle_154" data-name="Rectangle 154" width="1.511" height="29.072" transform="translate(1.068)" fill="#ffa100"/>
      <rect id="Rectangle_155" data-name="Rectangle 155" width="1.511" height="29.072" transform="translate(54.369)" fill="#ffc700"/>
      <rect id="Rectangle_156" data-name="Rectangle 156" width="1.511" height="29.072" transform="translate(41.044)" fill="#ffc700"/>
      <rect id="Rectangle_157" data-name="Rectangle 157" width="1.511" height="29.072" transform="translate(27.719)" fill="#ffc700"/>
      <rect id="Rectangle_158" data-name="Rectangle 158" width="1.511" height="29.072" transform="translate(14.393)" fill="#ffc700"/>
      <rect id="Rectangle_159" data-name="Rectangle 159" width="56.573" height="2.333" fill="#ffc700"/>
      <path id="Path_556" data-name="Path 556" d="M266.761,71.623l-49.135-2.084a4.378,4.378,0,0,1-4.087-3.411l-.079-.353h-1.513v5.848Z" transform="translate(-210.88 -36.704)" fill="#ffa100"/>
      <rect id="Rectangle_160" data-name="Rectangle 160" width="56.573" height="0.842" transform="translate(0 1.491)" fill="#ffa100"/>
    </g>
    <g id="Group_119" data-name="Group 119" transform="translate(173.876 217.885)">
      <rect id="Rectangle_161" data-name="Rectangle 161" width="11.349" height="39.205" transform="translate(2.136)" fill="#353432"/>
      <path id="Path_557" data-name="Path 557" d="M183.524,122.317H172.175v39.205h2.808l.814-12.965,7.727-14.96Z" transform="translate(-170.039 -122.317)" fill="#aaaaa6" style="mix-blend-mode: multiply;isolation: isolate"/>
      <rect id="Rectangle_162" data-name="Rectangle 162" width="15.261" height="2.339" transform="translate(0 39.205)" fill="#353432"/>
    </g>
    <g id="Group_120" data-name="Group 120" transform="translate(210.799 217.885)">
      <rect id="Rectangle_163" data-name="Rectangle 163" width="11.349" height="39.205" transform="translate(1.854)" fill="#353432"/>
      <path id="Path_558" data-name="Path 558" d="M201.136,122.317H189.787v39.205h2.808l.814-12.965,7.727-14.96Z" transform="translate(-187.831 -122.317)" fill="#aaaaa6" style="mix-blend-mode: multiply;isolation: isolate"/>
      <rect id="Rectangle_164" data-name="Rectangle 164" width="15.261" height="2.339" transform="translate(0 39.205)" fill="#353432"/>
    </g>
    <g id="Group_121" data-name="Group 121" transform="translate(247.721 217.756)">
      <rect id="Rectangle_165" data-name="Rectangle 165" width="11.349" height="39.205" transform="translate(1.854)" fill="#353432"/>
      <path id="Path_559" data-name="Path 559" d="M218.834,122.255H207.485v39.206h2.808l.814-12.965,7.727-14.96Z" transform="translate(-205.529 -122.255)" fill="#aaaaa6" style="mix-blend-mode: multiply;isolation: isolate"/>
      <rect id="Rectangle_166" data-name="Rectangle 166" width="15.261" height="2.339" transform="translate(0 39.205)" fill="#353432"/>
    </g>
    <g id="Group_122" data-name="Group 122" transform="translate(284.644 217.885)">
      <rect id="Rectangle_167" data-name="Rectangle 167" width="11.349" height="39.205" transform="translate(1.956)" fill="#353432"/>
      <path id="Path_560" data-name="Path 560" d="M236.532,122.317H225.183v39.205h2.808l.814-12.965,7.727-14.96Z" transform="translate(-223.227 -122.317)" fill="#aaaaa6" style="mix-blend-mode: multiply;isolation: isolate"/>
      <rect id="Rectangle_168" data-name="Rectangle 168" width="15.261" height="2.339" transform="translate(0 39.205)" fill="#353432"/>
    </g>
    <g id="Group_123" data-name="Group 123" transform="translate(321.567 217.885)">
      <rect id="Rectangle_169" data-name="Rectangle 169" width="11.349" height="39.205" transform="translate(1.956)" fill="#353432"/>
      <path id="Path_561" data-name="Path 561" d="M254.23,122.317H242.881v39.205h2.808l.814-12.965,7.727-14.96Z" transform="translate(-240.926 -122.317)" fill="#aaaaa6" style="mix-blend-mode: multiply;isolation: isolate"/>
      <rect id="Rectangle_170" data-name="Rectangle 170" width="15.261" height="2.339" transform="translate(0 39.205)" fill="#353432"/>
    </g>
  </g>
</svg>
