<svg xmlns="http://www.w3.org/2000/svg" width="222.758" height="225.092" viewBox="0 0 222.758 225.092">
  <g id="Group_106" data-name="Group 106" transform="translate(-35.586 -34.63)">
    <g id="Group_94" data-name="Group 94" transform="translate(125.262 91.45)">
      <path id="Rectangle_64" data-name="Rectangle 64" d="M1.651,0h40.1A1.651,1.651,0,0,1,43.4,1.651V148.43a0,0,0,0,1,0,0H0a0,0,0,0,1,0,0V1.651A1.651,1.651,0,0,1,1.651,0Z" transform="translate(0.001 8.104)" fill="#696863"/>
      <path id="Path_494" data-name="Path 494" d="M99.995,65.666H81.908a3.455,3.455,0,0,0-3.454,3.454V214.094H96.541V69.12A3.453,3.453,0,0,1,99.995,65.666Z" transform="translate(-78.454 -57.561)" fill="#aaaaa6" style="mix-blend-mode: multiply;isolation: isolate"/>
      <rect id="Rectangle_65" data-name="Rectangle 65" width="35.712" height="8.104" transform="translate(4.076)" fill="#9d9c95"/>
      <rect id="Rectangle_66" data-name="Rectangle 66" width="25.366" height="8.104" transform="translate(4.076)" fill="#e3e3dd" style="mix-blend-mode: multiply;isolation: isolate"/>
    </g>
    <g id="Group_96" data-name="Group 96" transform="translate(81.67 34.631)">
      <g id="Group_95" data-name="Group 95">
        <rect id="Rectangle_67" data-name="Rectangle 67" width="21.396" height="213.354" transform="translate(5.196)" fill="#e3e3dd"/>
        <rect id="Rectangle_68" data-name="Rectangle 68" width="21.396" height="22.925" transform="translate(5.196 46.818)" fill="#df3d32"/>
        <rect id="Rectangle_69" data-name="Rectangle 69" width="21.396" height="22.925" transform="translate(5.196)" fill="#df3d32"/>
        <rect id="Rectangle_70" data-name="Rectangle 70" width="21.396" height="22.925" transform="translate(5.196 92.311)" fill="#df3d32"/>
        <rect id="Rectangle_71" data-name="Rectangle 71" width="5.196" height="5.502" transform="translate(26.593 61.744)" fill="#696863"/>
        <rect id="Rectangle_72" data-name="Rectangle 72" width="5.196" height="5.502" transform="translate(0 61.744)" fill="#696863"/>
        <rect id="Rectangle_73" data-name="Rectangle 73" width="5.196" height="5.502" transform="translate(26.593 8.864)" fill="#696863"/>
        <rect id="Rectangle_74" data-name="Rectangle 74" width="5.196" height="5.502" transform="translate(0 8.864)" fill="#696863"/>
        <rect id="Rectangle_75" data-name="Rectangle 75" width="5.196" height="5.502" transform="translate(26.593 124.202)" fill="#696863"/>
      </g>
      <path id="Path_495" data-name="Path 495" d="M65.378,34.631V148.2L81.5,167.479v80.5l-21.4,1.244V34.631Z" transform="translate(-54.903 -34.631)" fill="#e3e3dd" style="mix-blend-mode: multiply;isolation: isolate"/>
      <path id="Path_496" data-name="Path 496" d="M68.862,123.426h0a2.3,2.3,0,0,1-2.3-2.295V37.906a2.3,2.3,0,0,1,2.3-2.295h0a2.3,2.3,0,0,1,2.295,2.295v83.225A2.3,2.3,0,0,1,68.862,123.426Z" transform="translate(-47.844 -33.56)" fill="#dbc2ec" style="mix-blend-mode: soft-light;isolation: isolate"/>
    </g>
    <g id="Group_98" data-name="Group 98" transform="translate(180.471 34.63)">
      <g id="Group_97" data-name="Group 97" transform="translate(0 0)">
        <rect id="Rectangle_76" data-name="Rectangle 76" width="21.397" height="213.354" transform="translate(26.593 213.354) rotate(180)" fill="#e3e3dd"/>
        <rect id="Rectangle_77" data-name="Rectangle 77" width="21.397" height="22.925" transform="translate(26.593 115.235) rotate(180)" fill="#df3d32"/>
        <rect id="Rectangle_78" data-name="Rectangle 78" width="5.196" height="5.502" transform="translate(5.196 67.246) rotate(180)" fill="#696863"/>
        <rect id="Rectangle_79" data-name="Rectangle 79" width="5.196" height="5.502" transform="translate(31.789 67.246) rotate(180)" fill="#696863"/>
        <rect id="Rectangle_80" data-name="Rectangle 80" width="5.196" height="5.502" transform="translate(5.196 14.366) rotate(180)" fill="#696863"/>
        <rect id="Rectangle_81" data-name="Rectangle 81" width="5.196" height="5.502" transform="translate(31.789 14.366) rotate(180)" fill="#696863"/>
        <rect id="Rectangle_82" data-name="Rectangle 82" width="5.196" height="5.502" transform="translate(5.196 129.703) rotate(180)" fill="#696863"/>
        <rect id="Rectangle_83" data-name="Rectangle 83" width="21.397" height="22.925" transform="translate(26.593 22.925) rotate(180)" fill="#df3d32"/>
        <rect id="Rectangle_84" data-name="Rectangle 84" width="21.397" height="22.925" transform="translate(26.593 69.742) rotate(180)" fill="#df3d32"/>
      </g>
      <path id="Path_497" data-name="Path 497" d="M112.608,34.631V148.2h9.1l7.02-31.084V247.984l-21.4,1.244V34.631Z" transform="translate(-102.133 -34.63)" fill="#e3e3dd" style="mix-blend-mode: multiply;isolation: isolate"/>
      <rect id="Rectangle_85" data-name="Rectangle 85" width="4.59" height="76.276" rx="1.043" transform="translate(19.116 2.237)" fill="#dbc2ec" style="mix-blend-mode: soft-light;isolation: isolate"/>
    </g>
    <g id="Group_99" data-name="Group 99" transform="translate(50.416 114.618)">
      <rect id="Rectangle_86" data-name="Rectangle 86" width="46.767" height="82.496" transform="translate(3.209 50.87)" fill="#9d9c95"/>
      <rect id="Rectangle_87" data-name="Rectangle 87" width="23.842" height="45.883" transform="translate(14.672 4.987)" fill="#9d9c95"/>
      <path id="Path_498" data-name="Path 498" d="M79.514,91.616H55.672L44.21,103.264H90.976Z" transform="translate(-41 -52.394)" fill="#9d9c95"/>
      <rect id="Rectangle_88" data-name="Rectangle 88" width="53.186" height="18.307" transform="translate(0 50.87)" fill="#696863"/>
      <rect id="Rectangle_89" data-name="Rectangle 89" width="36.068" height="4.987" transform="translate(8.558)" fill="#9d9c95"/>
      <path id="Path_499" data-name="Path 499" d="M69.268,77.341V206.233H45.885V142.043H42.675V123.737h3.209l11.462-11.648V77.854H51.234V72.867H69.268Z" transform="translate(-42.675 -72.867)" fill="#e3e3dd" style="mix-blend-mode: multiply;isolation: isolate"/>
    </g>
    <path id="Path_500" data-name="Path 500" d="M81.216,142.267H76.325V87.013a4.538,4.538,0,0,0-4.533-4.533h-16.4V77.589h16.4a9.435,9.435,0,0,1,9.424,9.424Z" transform="translate(21.621 46.908)" fill="#f4f4f1"/>
    <path id="Path_501" data-name="Path 501" d="M64.636,82.948a6.724,6.724,0,1,1-6.726-6.723A6.726,6.726,0,0,1,64.636,82.948Z" transform="translate(17.035 45.418)" fill="#e3e3dd" style="mix-blend-mode: multiply;isolation: isolate"/>
    <path id="Path_502" data-name="Path 502" d="M65.622,82.269A6.724,6.724,0,1,1,58.9,75.543,6.724,6.724,0,0,1,65.622,82.269Z" transform="translate(18.111 44.673)" fill="#e3e3dd"/>
    <g id="Group_100" data-name="Group 100" transform="translate(88.771 189.174)">
      <rect id="Rectangle_90" data-name="Rectangle 90" width="23.242" height="51.533" transform="translate(0 7.277)" fill="#d1d0c6"/>
      <path id="Path_503" data-name="Path 503" d="M78.556,108.507H66.707l-5.7,7.277H84.252Z" transform="translate(-61.01 -108.507)" fill="#e3e3dd"/>
      <rect id="Rectangle_91" data-name="Rectangle 91" width="6.272" height="51.533" transform="translate(0 7.277)" fill="#e3e3dd" style="mix-blend-mode: multiply;isolation: isolate"/>
      <rect id="Rectangle_92" data-name="Rectangle 92" width="6.268" height="51.533" transform="translate(15.853 7.277)" fill="#f4f4f1"/>
    </g>
    <g id="Group_101" data-name="Group 101" transform="translate(190.329 114.618)">
      <rect id="Rectangle_93" data-name="Rectangle 93" width="46.767" height="82.496" transform="translate(49.976 133.366) rotate(180)" fill="#9d9c95"/>
      <rect id="Rectangle_94" data-name="Rectangle 94" width="23.842" height="45.883" transform="translate(38.514 50.87) rotate(180)" fill="#9d9c95"/>
      <rect id="Rectangle_95" data-name="Rectangle 95" width="36.068" height="4.987" transform="translate(44.627 4.987) rotate(180)" fill="#9d9c95"/>
      <path id="Path_504" data-name="Path 504" d="M122.554,91.616H146.4l11.463,11.648H111.092Z" transform="translate(-107.882 -52.394)" fill="#9d9c95"/>
      <rect id="Rectangle_96" data-name="Rectangle 96" width="53.186" height="18.307" transform="translate(53.186 69.177) rotate(180)" fill="#696863"/>
      <path id="Path_505" data-name="Path 505" d="M136.15,77.341V206.233H112.767V142.043h-3.209V123.737h3.209l11.462-11.648V77.854h-6.113V72.867H136.15Z" transform="translate(-109.558 -72.867)" fill="#e3e3dd" style="mix-blend-mode: multiply;isolation: isolate"/>
      <rect id="Rectangle_97" data-name="Rectangle 97" width="11.042" height="64.19" transform="translate(36.779 69.177)" fill="#b1b0aa"/>
      <path id="Path_506" data-name="Path 506" d="M128.985,75.251v34.234l11,11.648H126.853l-1.261-11.648-.108-34.234Z" transform="translate(-92.167 -70.264)" fill="#b1b0aa"/>
    </g>
    <path id="Path_507" data-name="Path 507" d="M118.373,82.948a6.725,6.725,0,1,0,6.726-6.723A6.724,6.724,0,0,0,118.373,82.948Z" transform="translate(90.397 45.418)" fill="#e3e3dd" style="mix-blend-mode: multiply;isolation: isolate"/>
    <path id="Path_508" data-name="Path 508" d="M109.923,142.267h4.891V87.013a4.538,4.538,0,0,1,4.533-4.533h16.4V77.589h-16.4a9.435,9.435,0,0,0-9.424,9.424Z" transform="translate(81.17 46.908)" fill="#f4f4f1"/>
    <g id="Group_102" data-name="Group 102" transform="translate(181.917 189.174)">
      <rect id="Rectangle_98" data-name="Rectangle 98" width="23.242" height="51.533" transform="translate(23.242 58.81) rotate(180)" fill="#d1d0c6"/>
      <rect id="Rectangle_99" data-name="Rectangle 99" width="6.272" height="51.533" transform="translate(0 7.277)" fill="#e3e3dd" style="mix-blend-mode: multiply;isolation: isolate"/>
      <rect id="Rectangle_100" data-name="Rectangle 100" width="6.272" height="51.533" transform="translate(16.97 7.277)" fill="#f4f4f1"/>
      <path id="Path_509" data-name="Path 509" d="M111.233,108.507h11.849l5.7,7.277H105.537Z" transform="translate(-105.537 -108.507)" fill="#e3e3dd"/>
    </g>
    <path id="Path_510" data-name="Path 510" d="M119.055,82.269a6.724,6.724,0,1,0,6.726-6.726A6.724,6.724,0,0,0,119.055,82.269Z" transform="translate(91.142 44.673)" fill="#e3e3dd"/>
    <g id="Group_105" data-name="Group 105" transform="translate(35.586 99.554)">
      <path id="Path_511" data-name="Path 511" d="M123.036,92.353H79.631a2.257,2.257,0,0,1,0-4.514h43.405a2.257,2.257,0,0,1,0,4.514Z" transform="translate(10.045 -41.454)" fill="#9d9c95"/>
      <path id="Path_512" data-name="Path 512" d="M123.036,106.739H79.631a2.256,2.256,0,0,1,0-4.512h43.405a2.256,2.256,0,0,1,0,4.512Z" transform="translate(10.045 -25.743)" fill="#9d9c95"/>
      <path id="Path_513" data-name="Path 513" d="M123.036,121.127H79.631a2.257,2.257,0,0,1,0-4.514h43.405a2.257,2.257,0,0,1,0,4.514Z" transform="translate(10.045 -10.035)" fill="#9d9c95"/>
      <path id="Path_514" data-name="Path 514" d="M88.692,205.571H86.247V77.608a4.139,4.139,0,0,1,4.134-4.134h14.206v2.445H90.381a1.69,1.69,0,0,0-1.688,1.688Z" transform="translate(19.731 -57.139)" fill="#d1d0c6"/>
      <rect id="Rectangle_101" data-name="Rectangle 101" width="4.891" height="148.431" transform="translate(121.873)" fill="#d1d0c6"/>
      <path id="Path_515" data-name="Path 515" d="M115.606,182.357h-2.445V99.021a1.844,1.844,0,0,0-1.841-1.843H94.626a1.844,1.844,0,0,0-1.843,1.843v83.336H90.338V99.021a4.294,4.294,0,0,1,4.288-4.288H111.32a4.293,4.293,0,0,1,4.286,4.288Z" transform="translate(24.199 -33.926)" fill="#9d9c95"/>
      <rect id="Rectangle_102" data-name="Rectangle 102" width="2.445" height="148.431" transform="translate(97.42)" fill="#9d9c95"/>
      <path id="Path_516" data-name="Path 516" d="M82.564,148.278H78.006c-1.86,0-3.316-1.826-3.316-4.161V85.633c0-2.332,1.456-4.159,3.316-4.159h4.558V83.56H78.006c-.582,0-1.228.851-1.228,2.073v58.484c0,1.222.646,2.073,1.228,2.073h4.558Z" transform="translate(7.112 -48.404)" fill="#9d9c95"/>
      <path id="Path_517" data-name="Path 517" d="M127.284,161.259h-2.445v-18.43a2.358,2.358,0,0,0-2.355-2.355H78.73a4.13,4.13,0,0,1-4.125-4.127V118.18a4.128,4.128,0,0,1,4.125-4.125h3.927V116.5H78.73a1.683,1.683,0,0,0-1.682,1.68v18.166a1.685,1.685,0,0,0,1.682,1.682h43.753a4.806,4.806,0,0,1,4.8,4.8Z" transform="translate(7.019 -12.828)" fill="#9d9c95"/>
      <g id="Group_103" data-name="Group 103" transform="translate(2.404 82.994)">
        <rect id="Rectangle_103" data-name="Rectangle 103" width="2.445" height="65.437" transform="translate(4.891)" fill="#696863"/>
        <rect id="Rectangle_104" data-name="Rectangle 104" width="2.445" height="65.437" fill="#696863"/>
      </g>
      <path id="Path_518" data-name="Path 518" d="M77.122,111.985,46.255,163.519H77.122Z" transform="translate(-23.937 -15.088)" fill="#e3e3dd" style="mix-blend-mode: multiply;isolation: isolate"/>
      <circle id="Ellipse_14" data-name="Ellipse 14" cx="6.072" cy="6.072" r="6.072" transform="translate(0 75.965)" fill="#353432"/>
      <path id="Path_519" data-name="Path 519" d="M70.116,154.336h2.445V126.01a5.621,5.621,0,0,0-5.615-5.615H39.658v2.445H66.947a3.171,3.171,0,0,1,3.169,3.169Z" transform="translate(-31.14 -5.905)" fill="#696863"/>
      <path id="Path_520" data-name="Path 520" d="M56.011,158.789h2.445V121.934a5.622,5.622,0,0,0-5.617-5.617H37.32v2.445H52.84a3.175,3.175,0,0,1,3.171,3.171Z" transform="translate(-33.693 -10.358)" fill="#696863"/>
      <path id="Path_521" data-name="Path 521" d="M59.975,154.336H57.532V126.01a5.621,5.621,0,0,1,5.615-5.615H101.3v2.445H63.147a3.173,3.173,0,0,0-3.171,3.169Z" transform="translate(-11.623 -5.905)" fill="#696863"/>
      <path id="Path_522" data-name="Path 522" d="M67.94,158.789H65.495V121.934a5.622,5.622,0,0,1,5.617-5.617h15.52v2.445H71.112a3.175,3.175,0,0,0-3.171,3.171Z" transform="translate(-2.928 -10.358)" fill="#9d9c95"/>
      <g id="Group_104" data-name="Group 104" transform="translate(213.018 97.666)">
        <rect id="Rectangle_105" data-name="Rectangle 105" width="2.445" height="50.765" transform="translate(0)" fill="#696863"/>
        <rect id="Rectangle_106" data-name="Rectangle 106" width="2.445" height="50.765" transform="translate(4.891)" fill="#696863"/>
      </g>
      <path id="Path_523" data-name="Path 523" d="M148.411,115.064a6.073,6.073,0,1,1-6.073-6.071A6.074,6.074,0,0,1,148.411,115.064Z" transform="translate(74.347 -18.355)" fill="#353432"/>
      <path id="Path_524" data-name="Path 524" d="M124.715,146.679H122.27V133.025a5.623,5.623,0,0,1,5.617-5.617h27.287v2.445H127.887a3.173,3.173,0,0,0-3.171,3.171Z" transform="translate(59.066 1.753)" fill="#696863"/>
      <path id="Path_525" data-name="Path 525" d="M132.678,151.131h-2.445V128.948a5.622,5.622,0,0,1,5.617-5.617h15.52v2.445H135.85a3.173,3.173,0,0,0-3.171,3.171Z" transform="translate(67.761 -2.699)" fill="#696863"/>
      <path id="Path_526" data-name="Path 526" d="M155.2,154.336h2.445V126.01a5.621,5.621,0,0,0-5.617-5.615H99.2v2.445h52.823a3.173,3.173,0,0,1,3.171,3.169Z" transform="translate(33.878 -5.905)" fill="#696863"/>
      <path id="Path_527" data-name="Path 527" d="M120.749,158.789h2.445V121.934a5.622,5.622,0,0,0-5.617-5.617h-15.52v2.445h15.52a3.173,3.173,0,0,1,3.171,3.171Z" transform="translate(36.996 -10.358)" fill="#9d9c95"/>
    </g>
    <rect id="Rectangle_107" data-name="Rectangle 107" width="217.95" height="11.737" transform="translate(37.99 247.985)" fill="#353432"/>
  </g>
</svg>
