<svg xmlns="http://www.w3.org/2000/svg" width="1922.28" height="667.155" viewBox="0 0 1922.28 667.155">
  <g id="Group_331" data-name="Group 331" transform="translate(0 -3808.012)">
    <g id="Group_92" data-name="Group 92" transform="translate(0 4063.402)">
      <path id="Path_480" data-name="Path 480" d="M292.263,23.366h997.425V40.1L37.5,39.909l43.74-16.543Z" transform="translate(-9.112 258.942)" fill="#d4ffe2"/>
      <path id="Path_481" data-name="Path 481" d="M253.768-59.914l553.813.357L271.956-71.1Z" transform="translate(49.726 238.422)" fill="#d4ffe2"/>
      <path id="Path_482" data-name="Path 482" d="M932.931-57.245h-255.8s22.546-6.63,40.262-6.63,22.441,2.6,22.441,2.6-6.692-32.915,18.109-39.26,28.549,12.5,28.549,12.5,11.115-19.791,35.9-12.5,9.445,30.788,9.445,30.788,9.535-3.534,18.608-1.214,9.411,7.086,9.411,7.086,6.669-16.053,20.936-16.255c16.013-.227,22.594,18.855,22.594,18.855S912.253-65.8,932.931-57.245Z" transform="translate(164.908 236.111)" fill="#d4ffe2"/>
      <path id="Path_483" data-name="Path 483" d="M1540.43-39.887,923.5-26.873,1540.43-29.1Z" transform="translate(231.936 240.745)" fill="#d4ffe2"/>
      <path id="Path_484" data-name="Path 484" d="M1532.628-79.131,828.452-80.355s246.021-7.955,322.523-7.955S1532.628-79.131,1532.628-79.131Z" transform="translate(206.076 237.141)" fill="#d4ffe2"/>
      <path id="Path_485" data-name="Path 485" d="M1619.7-130.752s-9.219-30.282-37.438-23.775c-31.324,7.222-25.036,83.182-25.036,83.182s-18.234-20.315-38.171-8.93c-18.052,10.307,7.569,50.931,7.569,50.931s-35.219-21.132-64.077.063c-24.144,17.732-14.169,56.643-14.169,56.643S1413.171-8.8,1362.1-1.674s-67.637,39.021-67.637,39.021-15.76-24.57-41.524-24.57-36.048,23.892-36.048,23.892-14.972-14.145-42.1.678l444.907-.678Z" transform="translate(300.302 232.144)" fill="#fff"/>
      <path id="Path_486" data-name="Path 486" d="M553.76,55.479s4.036-29-25.748-40.285a51.788,51.788,0,0,0-48.491,6.173s14.856-36.792-21.793-53.452C417.224-50.5,398.4-13.97,398.4-13.97s-1.6-16.886-19.167-20.907C358.31-39.667,342.72-22.273,342.72-22.273s41.964-44.887,2.136-79.21c-28.958-24.956-63.747-4.2-63.747-4.2s11.348-42.04-22.82-52.519c-30.121-9.239-52.029,28.719-52.029,28.719s-8.215-19.441-22.818-19.441-18.255,12.538-18.255,12.538,34.743-73.982-17.343-88.767c-45.181-12.826-57.5,52.258-57.5,52.258S13.3-176.365,18.977-129.753V51.507Z" transform="translate(-14.234 226.83)" fill="#d4ffe2"/>
      <g id="Group_91" data-name="Group 91" transform="translate(0 97.753)">
        <path id="Path_487" data-name="Path 487" d="M475.5,156.489s-.224-.424-.668-1.156l1.455.013C475.767,156.07,475.5,156.489,475.5,156.489Z" transform="translate(109.868 157.523)" fill="#fff"/>
        <path id="Path_488" data-name="Path 488" d="M43.1-82.868c32.86-7.054,35.712,20.44,35.712,20.44s-4.222-66.038,25.9-72.737,42.225,38,42.225,38,5.467-13.237,11.173-11.777c10.566,2.7,7.569,21.575,7.569,21.575s14.907-34.064,55.222-22.681c40.056,11.308,29.577,75.243,29.577,75.243s19.119-9.944,34.914,1.957c20.169,15.2,4.792,41.778,4.792,41.778s30.209-10.98,51.615,3.8c25.244,17.434,13.42,53.642,13.42,53.642s33.34-34.244,81.7-27.5c43.249,6.032,60.356,30.811,63.494,35.987l-468.244-1.7L19.449,69.031,15.492-29.515S10.243-75.814,43.1-82.868Z" transform="translate(-15.184 135.849)" fill="#fff"/>
        <path id="Path_489" data-name="Path 489" d="M444.657,35.921c29.17,0,40.814,27.051,40.814,27.051s16.95-16.014,47.665.767L398.431,62.6C402.165,57.369,419.041,35.921,444.657,35.921Z" transform="translate(89.083 148.635)" fill="#fff"/>
      </g>
      <path id="Path_490" data-name="Path 490" d="M1271.691-78.886h-353A122.911,122.911,0,0,1,965.06-87.9c26.566,0,33.305,6.108,33.305,6.108s3.748-38.291,41.431-42.129c35.142-3.579,55.393,27.877,55.393,27.877s2-12.107,24.372-12.107,16.681,16.094,16.681,16.094,4.292-33.988,53.228-33.988,44.924,37.1,44.924,37.1S1258.305-90.192,1271.691-78.886Z" transform="translate(230.626 234.332)" fill="#fff"/>
    </g>
    <g id="Group_330" data-name="Group 330" transform="translate(915.824 3808.012)">
      <path id="Path_486-2" data-name="Path 486" d="M19.153,441.012s-10.441-68.355,66.6-94.961c71.425-24.661,125.437,14.55,125.437,14.55s-38.431-86.727,56.374-126C372.343,191.2,421.04,277.3,421.04,277.3s4.133-39.8,49.582-49.283c54.12-11.288,94.449,29.713,94.449,29.713S456.519,151.926,559.547,71.02c74.91-58.827,164.9-9.908,164.9-9.908s-29.355-99.1,59.029-123.8c77.917-21.779,134.588,67.7,134.588,67.7s21.251-45.826,59.026-45.826,47.223,29.554,47.223,29.554-81.375-165.821,0-200.27c1.879-.486-.067,549.581,0,641.612Z" transform="translate(-18.678 211.536)" fill="#d4ffe2"/>
    </g>
    <path id="Path_2309" data-name="Path 2309" d="M811.99-66.316c-24.4,6.244-23.9,52.371-23.9,52.371S753.667-92.6,660.583-66.316C568.094-40.205,592.29,107.417,592.29,107.417s-44.146-22.96-80.616,4.518C465.105,147.027,500.61,208.4,500.61,208.4s-69.752-25.352-119.179,8.782c-58.288,40.254-30.987,123.859-30.987,123.859s-76.98-79.07-188.654-63.492C61.929,291.477,22.43,348.69,15.184,360.643h790.38s5.452-61.242,6.426-134.572C809.67,91.81,811.246-92.478,811.99-66.316Z" transform="translate(1108.959 4109.034)" fill="#fff"/>
    <g id="Group_64" data-name="Group 64" transform="translate(0 4199.829)">
      <g id="Group_62" data-name="Group 62" transform="translate(0 55.289)">
        <path id="Path_259" data-name="Path 259" d="M-89.469,371.336l-105.4-34.378v52.57l89.969-.259-1.86-7.521-1.349,8.1H445.192v-62.04l-141.567-9.359-47.509,18.13L233.037,298.9l-12.572-20.547-28.5,2.245-32.32,55.979L111.892,192.555l-24.715-10.2-16.15-6.682Z" transform="translate(194.873 -175.666)" fill="#8d95ab"/>
        <path id="Path_260" data-name="Path 260" d="M-194.873,258.953v7.787l85.492,35.9,4.477-.017h0l15.434-9.289Z" transform="translate(194.873 -89.018)" fill="#cfd6c4" style="mix-blend-mode: soft-light;isolation: isolate"/>
        <path id="Path_261" data-name="Path 261" d="M180.906,255.009l.551,5.921L40.191,249.764-8.182,263.786l47.521-18.145Z" transform="translate(459.168 -102.867)" fill="#cfd6c4" style="mix-blend-mode: soft-light;isolation: isolate"/>
        <path id="Path_262" data-name="Path 262" d="M25.281,246.543,12.7,226l-28.5,2.242-32.319,55.982,16.824-19.829-3.152,25.519,23.027-57.647,24.247-2.91Z" transform="translate(402.63 -123.304)" fill="#cfd6c4" style="mix-blend-mode: soft-light;isolation: isolate"/>
        <path id="Path_263" data-name="Path 263" d="M-194.873,262.769v36.836l90.587-.379Z" transform="translate(194.873 -85.047)" fill="#727c97"/>
        <path id="Path_264" data-name="Path 264" d="M-145.008,384.7l92.986-45.447,73.676-13.738L-25.106,296.5,16.586,178.939l24.705,10.213L89.046,333.181l31.391,45.165,38.188-4.626,3.82-78.218,23.075,37.68,46.525,45.165,67.379-7.878,75.127-7.851.057,23.831Z" transform="translate(265.465 -172.263)" fill="#727c97"/>
        <path id="Path_265" data-name="Path 265" d="M50.115,192.556,25.409,182.343l-52.027,96.018,7.269-41L-151.24,371.329,9.259,175.667Z" transform="translate(256.642 -175.667)" fill="#cfd6c4" style="mix-blend-mode: soft-light;isolation: isolate"/>
        <path id="Path_266" data-name="Path 266" d="M-84.678,268.159l-37.262-20.887L-11,254.421Z" transform="translate(298.122 -101.17)" fill="#cfd6c4" style="mix-blend-mode: soft-light;isolation: isolate"/>
      </g>
      <g id="Group_63" data-name="Group 63" transform="translate(399.475 0)">
        <path id="Path_267" data-name="Path 267" d="M185.2,148.57l87.9,49.767,98.378,166.44,44.722,14.394L585.2,327.1,711.2,364.777l44.448,34.744,219.323-34.744,106.552,34.744,160.5-195.662,40.855,16.889,47.755,144.029,32.319-55.982,28.5-2.242,35.657,58.224L1492.087,345v76.44L185.2,418.044l-214.707-8.1,145.144-244.95Z" transform="translate(29.505 -148.57)" fill="#8d95ab"/>
        <path id="Path_268" data-name="Path 268" d="M174.516,148.57l-22.544,66.493,59.284,75.689L157.423,315.5l-52.47,71.858L27.27,377.466l-49.228,1.7,244.55,35.615,174.5-11.224,8.432-24.392L360.8,364.777,262.42,198.337Z" transform="translate(40.191 -148.57)" fill="#727c97"/>
        <path id="Path_269" data-name="Path 269" d="M30.579,164.992,96.417,177.35l67.1,49.428,13.629-13.637-4.77,24.188,97.747,131.558,61.026,10.284-44.722-14.394-98.378-166.44-87.9-49.767Z" transform="translate(114.566 -148.57)" fill="#cfd6c4" style="mix-blend-mode: soft-light;isolation: isolate"/>
        <path id="Path_270" data-name="Path 270" d="M295.519,289.278l219.323-34.744,106.552,34.744L604.109,299.7l-98.637-41.422Z" transform="translate(489.639 -38.327)" fill="#cfd6c4" style="mix-blend-mode: soft-light;isolation: isolate"/>
        <path id="Path_271" data-name="Path 271" d="M637.771,251.7l-15.922-1.936-48.373,14.022L621,245.641l16.48,2.56Z" transform="translate(883.14 -47.579)" fill="#cfd6c4" style="mix-blend-mode: soft-light;isolation: isolate"/>
        <path id="Path_272" data-name="Path 272" d="M606.94,246.543,594.358,226l-28.5,2.242L533.54,284.222l16.824-19.829-3.152,25.519,23.027-57.647,24.247-2.91Z" transform="translate(826.602 -68.015)" fill="#cfd6c4" style="mix-blend-mode: soft-light;isolation: isolate"/>
        <path id="Path_273" data-name="Path 273" d="M155,288.14,324,236.067,450,273.746l44.448,34.744-69.6,10.421L397.59,277.489l6.133,33.866-22.487-46.386-66.78-9.368Z" transform="translate(290.709 -57.539)" fill="#cfd6c4" style="mix-blend-mode: soft-light;isolation: isolate"/>
        <path id="Path_274" data-name="Path 274" d="M157.423,307.128l-109.028-28.2L77.014,222.3l17.717-16.2,10.222-49.488L-21.957,370.8l49.228-1.7,77.683,9.894Z" transform="translate(40.191 -140.196)" fill="#cfd6c4" style="mix-blend-mode: soft-light;isolation: isolate"/>
        <path id="Path_275" data-name="Path 275" d="M249.815,245.641l-49.154,40.728L230,300.845l-29.336,16.2,154.719-.374,4.827-7.721-27.257-41.422,6.133,33.866L316.6,255.009Z" transform="translate(355.349 -47.579)" fill="#727c97"/>
        <path id="Path_276" data-name="Path 276" d="M459.877,256.368V287.91l-132.15,17.976H557.151l1.363-8.1Z" transform="translate(535.235 -36.418)" fill="#727c97"/>
        <path id="Path_277" data-name="Path 277" d="M436.651,384.7l92.986-45.447,73.676-13.738L556.553,296.5l41.692-117.562,24.705,10.213,47.755,144.029L702.1,378.347l38.188-4.626L744.1,295.5l23.075,37.68L813.7,378.347l18.252,1.037-.331,6.645Z" transform="translate(689.437 -116.974)" fill="#727c97"/>
        <path id="Path_278" data-name="Path 278" d="M631.773,192.556l-24.705-10.213-52.027,96.018,7.269-41L430.419,371.329l160.5-195.662Z" transform="translate(680.614 -120.379)" fill="#cfd6c4" style="mix-blend-mode: soft-light;isolation: isolate"/>
        <path id="Path_279" data-name="Path 279" d="M496.98,268.159l-37.262-20.887,110.938,7.149Z" transform="translate(722.094 -45.882)" fill="#cfd6c4" style="mix-blend-mode: soft-light;isolation: isolate"/>
      </g>
    </g>
  </g>
</svg>
