<svg xmlns="http://www.w3.org/2000/svg" xmlns:xlink="http://www.w3.org/1999/xlink" width="1920.952" height="745.853" viewBox="0 0 1920.952 745.853">
  <defs>
    <linearGradient id="linear-gradient" x1="1.715" y1="1" x2="1.715" gradientUnits="objectBoundingBox">
      <stop offset="0" stop-color="#7aecbd"/>
      <stop offset="1" stop-color="#004563"/>
    </linearGradient>
    <linearGradient id="linear-gradient-2" x1="0.5" y1="0.087" x2="0.5" y2="0.576" gradientUnits="objectBoundingBox">
      <stop offset="0" stop-color="#064e67" stop-opacity="0"/>
      <stop offset="1" stop-color="#064e67"/>
    </linearGradient>
  </defs>
  <g id="Group_330" data-name="Group 330" transform="translate(0 -4449.09)">
    <g id="Group_66" data-name="Group 66" transform="translate(0 4449.09)">
      <path id="Path_280" data-name="Path 280" d="M.952,0,1919.859,8.373s2.458,347.42,0,341.935c-.974-2.172-301.3,2.539-666.779.821-553.466.612-1253.08,0-1253.08,0Z" transform="translate(1920.952 351.514) rotate(180)" fill="url(#linear-gradient)"/>
      <g id="Group_65" data-name="Group 65" transform="translate(75.583 45.836)" opacity="0.21">
        <path id="Path_285" data-name="Path 285" d="M698.671-99.4c0,2.646,2.9,4.791,6.471,4.791s6.468-2.145,6.468-4.791-2.9-4.791-6.468-4.791S698.671-102.047,698.671-99.4Z" transform="translate(669.706 232.51)" fill="#fff"/>
        <path id="Path_286" data-name="Path 286" d="M518.5-105.086c0,2.646,2.9,4.791,6.468,4.791s6.468-2.145,6.468-4.791-2.9-4.791-6.468-4.791S518.5-107.732,518.5-105.086Z" transform="translate(279.727 224.869)" fill="#fff"/>
        <path id="Path_287" data-name="Path 287" d="M303.261-151.607c0,2.646,2.9,4.791,6.468,4.791s6.468-2.145,6.468-4.791-2.9-4.791-6.468-4.791S303.261-154.253,303.261-151.607Z" transform="translate(-186.141 162.344)" fill="#fff"/>
        <path id="Path_288" data-name="Path 288" d="M270.272-134.556c0,2.646,2.9,4.794,6.468,4.794s6.468-2.147,6.468-4.794-2.9-4.791-6.468-4.791S270.272-137.2,270.272-134.556Z" transform="translate(-257.545 185.261)" fill="#fff"/>
        <path id="Path_289" data-name="Path 289" d="M309.1-142.977c0,2.646,2.9,4.791,6.468,4.791s6.468-2.145,6.468-4.791-2.9-4.791-6.468-4.791S309.1-145.623,309.1-142.977Z" transform="translate(-173.497 173.943)" fill="#fff"/>
        <path id="Path_290" data-name="Path 290" d="M365.488-114.667c0,2.646,2.9,4.791,6.468,4.791s6.468-2.145,6.468-4.791-2.9-4.791-6.468-4.791S365.488-117.313,365.488-114.667Z" transform="translate(-51.454 211.992)" fill="#fff"/>
        <path id="Path_291" data-name="Path 291" d="M575.732-74.32c0,2.646,2.9,4.791,6.468,4.791s6.471-2.145,6.471-4.791-2.9-4.791-6.471-4.791S575.732-76.966,575.732-74.32Z" transform="translate(403.61 266.22)" fill="#fff"/>
        <ellipse id="Ellipse_5" data-name="Ellipse 5" cx="3.491" cy="2.586" rx="3.491" ry="2.586" transform="translate(1361.397 94.741)" fill="#fff"/>
        <ellipse id="Ellipse_6" data-name="Ellipse 6" cx="3.491" cy="2.586" rx="3.491" ry="2.586" transform="translate(1503.681 69.539)" fill="#fff"/>
        <ellipse id="Ellipse_7" data-name="Ellipse 7" cx="3.491" cy="2.586" rx="3.491" ry="2.586" transform="translate(1453.049 100.24)" fill="#fff"/>
        <ellipse id="Ellipse_8" data-name="Ellipse 8" cx="3.491" cy="2.586" rx="3.491" ry="2.586" transform="translate(574.348 194.106)" fill="#fff"/>
        <ellipse id="Ellipse_9" data-name="Ellipse 9" cx="3.491" cy="2.586" rx="3.491" ry="2.586" transform="translate(142.074 65.914)" fill="#fff"/>
        <ellipse id="Ellipse_10" data-name="Ellipse 10" cx="3.491" cy="2.586" rx="3.491" ry="2.586" transform="translate(173.11 77.365)" fill="#fff"/>
        <ellipse id="Ellipse_11" data-name="Ellipse 11" cx="3.491" cy="2.586" rx="3.491" ry="2.586" transform="translate(942.195 177.404)" fill="#fff"/>
        <ellipse id="Ellipse_12" data-name="Ellipse 12" cx="3.491" cy="2.586" rx="3.491" ry="2.586" transform="translate(1549.038)" fill="#fff"/>
        <ellipse id="Ellipse_13" data-name="Ellipse 13" cx="3.491" cy="2.586" rx="3.491" ry="2.586" transform="translate(330.359 112.407)" fill="#fff"/>
        <path id="Path_292" data-name="Path 292" d="M623.264-92.995c0,3.926,4.3,7.109,9.6,7.109s9.6-3.183,9.6-7.109-4.3-7.109-9.6-7.109S623.264-96.921,623.264-92.995Z" transform="translate(506.491 238.005)" fill="#fff"/>
        <path id="Path_293" data-name="Path 293" d="M564.242-66.788c0,3.926,4.3,7.109,9.6,7.109s9.6-3.183,9.6-7.109-4.3-7.109-9.6-7.109S564.242-70.716,564.242-66.788Z" transform="translate(378.74 273.227)" fill="#fff"/>
        <path id="Path_294" data-name="Path 294" d="M526.443-70.947c0,3.929,4.3,7.112,9.6,7.112s9.6-3.183,9.6-7.112-4.3-7.109-9.6-7.109S526.443-74.873,526.443-70.947Z" transform="translate(296.926 267.637)" fill="#fff"/>
        <path id="Path_295" data-name="Path 295" d="M266.25-101.713c0,3.926,4.3,7.109,9.6,7.109s9.6-3.183,9.6-7.109-4.3-7.109-9.6-7.109S266.25-105.639,266.25-101.713Z" transform="translate(-266.25 226.287)" fill="#fff"/>
      </g>
    </g>
    <rect id="Rectangle_35" data-name="Rectangle 35" width="1920" height="385.182" transform="translate(0 4767.587)" fill="#064e67"/>
    <path id="Path_2309" data-name="Path 2309" d="M0,0H1920V744.438H0Z" transform="translate(0 4449.09)" fill="url(#linear-gradient-2)"/>
    <path id="Path_296" data-name="Path 296" d="M928.931,58.488s7.155-39.951,15.522-72.128,5.627-63.924-.946-69.247-13.756-.457-13.756-.457-.342,12.613,9.095,31.246-20.259,44.054-21.36,62.2S895.808,41.058,887.907,40.8,861.945,2.382,848.351-16.837s-56.425-27.1-91.7-48.216S648.547-92.994,654.208-88.407s34.809.572,71.751,18.227,45.255,19.69,73.782,34.717,46.23,57.846,45.413,71.312S761.781,48.329,749.8,47.931s27.005-42.509,8.889-57.189-31.227-40.048-38.249-35.3,33.334,26.921,32.591,39.213.367,31.1-8.326,30.814.788-28.956-10.228-37.884-22.515-35.943-35.16-36.365S709.07-26.748,721.9-16.35s10.307,41.4,9.563,53.7-18.041,13.27-43.894,12.409-85.893-3.235-109.886.659-48.21-1.6-67.966-2.262-19.379-20-11.237-36.743S511.27-26.635,497.372-37.9s-8.5-27.266-13.249-40.329-5.481-13.673-6.475,2.719,3.984,30.54,16.139,46.873.475,37.854-6.544,42.607-20.61-13-19.544-30.566,8.474-31.539-7.946-44.846-25.42-41.177-32.651-36.283,21.325,27.13,32.224,43.308-3.044,23.363,1.244,41.1,16.4,26.937,15.8,36.893.006,23.075,3.193,25.658S503.511,60.87,503.511,60.87Z" transform="translate(959.205 5134.073)" fill="#092754" opacity="0.18" style="mix-blend-mode: multiply;isolation: isolate"/>
    <g id="Group_93" data-name="Group 93" transform="translate(1002.056 5071.751)">
      <path id="Path_491" data-name="Path 491" d="M46.6,408.613s14.447-.208,14.447-13.33,1.252-26.846-7.222-33.123-21.53-3.318-17.053,0,8.925-.119,16.074,5.179,7.382,31.224,3.608,34.019S50.549,406.7,45.3,406.7s6.044-9.477,3.186-14.58-1.546-15.065-8.763-15.065,4.921,7.29,4.921,12.636,1.64,14.094-2.952,14.094-12.628,1.821-14.762.243,6.889-9.72,0-14.823-2.787,10.083-5.9,12.393-13.494,5.451-13.494,5.451Z" transform="translate(-7.531 -285.928)" fill="#092754" opacity="0.18" style="mix-blend-mode: multiply;isolation: isolate"/>
      <path id="Path_492" data-name="Path 492" d="M276.514,444.351s15.99-22.126,15.99-37.028,7.852-32.234-10.744-46.007-24.96-24.624-24.96-18.143,12.586,18.007,18.675,22.517,6.285,22.355,6.285,35.963-4.6,34.991-10.508,30.617-8.529-19.439-8.529-34.991-5.876-25.588-17.914-34.5-1.441-38.15-5.705-41.309-6.561,18.953-6.561,27.7,11.03,23.512,19.963,30.131,3.435,30.617,6.936,41.309-2.643,15.227-2.643,15.227-25.3,0-30.138-7.776,12.222-27.538,8.723-39.2-9.4-26.729-15.308-31.1-22.307-8.1-15.746-3.241,10.933,11.339,15.746,20.736,11.626,22.507,6.584,26.243-10.521,16.846-10.521,23.65,10.933,12.313,1.312,12.313-25.369,6.8-32.369-5.184-9.839-27.058-18.806-20.413,8.309,9.722,8.309,17.822-1.664,6.8-10.891,6.8-22.569-7.939-29.348-2.916-10.936,8.748-14.872,5.832,3.937-36.612,10.936-49.57,8.747-27.54,3.5-35.315-.874-24.947-9.621-24.947-4.774,21.043,3.937,29.482,6.27,19.435,1.312,23.109-7.356,19.006-11.114,29.7-7.695,27.217-14.255,27.217-17.5,7.451-17.5-3.888.877-22.031,7.437-37.582,11.371-37.584,5.684-41.795-3.5,3.882-3.5,12.309-3.5,19.441-9.623,28.514-7.435,19.762-7.435,27.538V439.4l2.735,3.756Z" transform="translate(108.944 -321.158)" fill="#092754" opacity="0.18" style="mix-blend-mode: multiply;isolation: isolate"/>
      <path id="Path_493" data-name="Path 493" d="M77.886,430.629s28.6-14.309,23.05-36.989,4.834-44.522-11.167-56.374,0,7.453,0,13.932-.6,31.449,5.616,39.2-5.616,15.552-5.616,20.411-11,15.551-16.691,11.339,2.624-9.4,2.624-20.091.656-27.7-7.873-34.015,3.936-25.271-5.249-25.271-2.918,22.383,4.375,29.587,3.5,32.295-1.312,40.718,4.742,11.391.874,14.257-13.56,4.535-13.56-2.269,6.561-14.9,6.561-28.834-3.06-25.6-10.059-30.78-9.185,2.572,0,10.692,8.311,18.464,4.81,25.917-10.907,9.724-10.907,16.2S49.412,429.8,49.412,429.8Z" transform="translate(50.672 -309.511)" fill="#092754" opacity="0.18" style="mix-blend-mode: multiply;isolation: isolate"/>
    </g>
  </g>
</svg>
